<?xml version="1.0" encoding="UTF-8" standalone="no"?>
<!-- Created with Inkscape (http://www.inkscape.org/) -->

<svg
   width="180"
   height="180"
   viewBox="0 0 180 180"
   version="1.1"
   id="svg5"
   xml:space="preserve"
   inkscape:version="1.2.2 (b0a8486541, 2022-12-01)"
   sodipodi:docname="dibujo.svg"
   xmlns:inkscape="http://www.inkscape.org/namespaces/inkscape"
   xmlns:sodipodi="http://sodipodi.sourceforge.net/DTD/sodipodi-0.dtd"
   xmlns:xlink="http://www.w3.org/1999/xlink"
   xmlns="http://www.w3.org/2000/svg"
   xmlns:svg="http://www.w3.org/2000/svg"><sodipodi:namedview
     id="namedview7"
     pagecolor="#ffffff"
     bordercolor="#000000"
     borderopacity="0.25"
     inkscape:showpageshadow="2"
     inkscape:pageopacity="0.0"
     inkscape:pagecheckerboard="0"
     inkscape:deskcolor="#d1d1d1"
     inkscape:document-units="px"
     showgrid="false"
     inkscape:zoom="2.56"
     inkscape:cx="93.945313"
     inkscape:cy="74.804688"
     inkscape:window-width="1340"
     inkscape:window-height="687"
     inkscape:window-x="10"
     inkscape:window-y="60"
     inkscape:window-maximized="1"
     inkscape:current-layer="layer3" /><defs
     id="defs2"><inkscape:path-effect
       effect="bspline"
       id="path-effect2756"
       is_visible="true"
       lpeversion="1"
       weight="33.333333"
       steps="2"
       helper_size="0"
       apply_no_weight="true"
       apply_with_weight="true"
       only_selected="false" /><inkscape:path-effect
       effect="bspline"
       id="path-effect2732"
       is_visible="true"
       lpeversion="1"
       weight="33.333333"
       steps="2"
       helper_size="0"
       apply_no_weight="true"
       apply_with_weight="true"
       only_selected="false" /><inkscape:path-effect
       effect="bspline"
       id="path-effect2728"
       is_visible="true"
       lpeversion="1"
       weight="33.333333"
       steps="2"
       helper_size="0"
       apply_no_weight="true"
       apply_with_weight="true"
       only_selected="false" /><inkscape:path-effect
       effect="bspline"
       id="path-effect2720"
       is_visible="true"
       lpeversion="1"
       weight="33.333333"
       steps="2"
       helper_size="0"
       apply_no_weight="true"
       apply_with_weight="true"
       only_selected="false" /><inkscape:path-effect
       effect="bspline"
       id="path-effect2716"
       is_visible="true"
       lpeversion="1"
       weight="33.333333"
       steps="2"
       helper_size="0"
       apply_no_weight="true"
       apply_with_weight="true"
       only_selected="false" /><inkscape:path-effect
       effect="bspline"
       id="path-effect2712"
       is_visible="true"
       lpeversion="1"
       weight="33.333333"
       steps="2"
       helper_size="0"
       apply_no_weight="true"
       apply_with_weight="true"
       only_selected="false" /><inkscape:path-effect
       effect="bspline"
       id="path-effect2708"
       is_visible="true"
       lpeversion="1"
       weight="33.333333"
       steps="2"
       helper_size="0"
       apply_no_weight="true"
       apply_with_weight="true"
       only_selected="false" /><inkscape:path-effect
       effect="bspline"
       id="path-effect2704"
       is_visible="true"
       lpeversion="1"
       weight="33.333333"
       steps="2"
       helper_size="0"
       apply_no_weight="true"
       apply_with_weight="true"
       only_selected="false" /><inkscape:path-effect
       effect="bspline"
       id="path-effect2698"
       is_visible="true"
       lpeversion="1"
       weight="33.333333"
       steps="2"
       helper_size="0"
       apply_no_weight="true"
       apply_with_weight="true"
       only_selected="false" /><inkscape:path-effect
       effect="bspline"
       id="path-effect2694"
       is_visible="true"
       lpeversion="1"
       weight="33.333333"
       steps="2"
       helper_size="0"
       apply_no_weight="true"
       apply_with_weight="true"
       only_selected="false" /><inkscape:path-effect
       effect="bspline"
       id="path-effect1492"
       is_visible="true"
       lpeversion="1"
       weight="33.333333"
       steps="2"
       helper_size="0"
       apply_no_weight="true"
       apply_with_weight="true"
       only_selected="false" /><inkscape:path-effect
       effect="bspline"
       id="path-effect1486"
       is_visible="true"
       lpeversion="1"
       weight="33.333333"
       steps="2"
       helper_size="0"
       apply_no_weight="true"
       apply_with_weight="true"
       only_selected="false" /><inkscape:path-effect
       effect="bspline"
       id="path-effect1480"
       is_visible="true"
       lpeversion="1"
       weight="33.333333"
       steps="2"
       helper_size="0"
       apply_no_weight="true"
       apply_with_weight="true"
       only_selected="false" /><inkscape:path-effect
       effect="bspline"
       id="path-effect1476"
       is_visible="true"
       lpeversion="1"
       weight="33.333333"
       steps="2"
       helper_size="0"
       apply_no_weight="true"
       apply_with_weight="true"
       only_selected="false" /><inkscape:path-effect
       effect="bspline"
       id="path-effect1472"
       is_visible="true"
       lpeversion="1"
       weight="33.333333"
       steps="2"
       helper_size="0"
       apply_no_weight="true"
       apply_with_weight="true"
       only_selected="false" /><inkscape:path-effect
       effect="bspline"
       id="path-effect1468"
       is_visible="true"
       lpeversion="1"
       weight="33.333333"
       steps="2"
       helper_size="0"
       apply_no_weight="true"
       apply_with_weight="true"
       only_selected="false" /><inkscape:path-effect
       effect="bspline"
       id="path-effect1413"
       is_visible="true"
       lpeversion="1"
       weight="33.333333"
       steps="2"
       helper_size="0"
       apply_no_weight="true"
       apply_with_weight="true"
       only_selected="false" /><inkscape:path-effect
       effect="bspline"
       id="path-effect1409"
       is_visible="true"
       lpeversion="1"
       weight="33.333333"
       steps="2"
       helper_size="0"
       apply_no_weight="true"
       apply_with_weight="true"
       only_selected="false" /><inkscape:path-effect
       effect="bspline"
       id="path-effect1403"
       is_visible="true"
       lpeversion="1"
       weight="33.333333"
       steps="2"
       helper_size="0"
       apply_no_weight="true"
       apply_with_weight="true"
       only_selected="false" /><inkscape:path-effect
       effect="bspline"
       id="path-effect1383"
       is_visible="true"
       lpeversion="1"
       weight="33.333333"
       steps="2"
       helper_size="0"
       apply_no_weight="true"
       apply_with_weight="true"
       only_selected="false" /><inkscape:path-effect
       effect="bspline"
       id="path-effect1379"
       is_visible="true"
       lpeversion="1"
       weight="33.333333"
       steps="2"
       helper_size="0"
       apply_no_weight="true"
       apply_with_weight="true"
       only_selected="false" /><inkscape:path-effect
       effect="bspline"
       id="path-effect1375"
       is_visible="true"
       lpeversion="1"
       weight="33.333333"
       steps="2"
       helper_size="0"
       apply_no_weight="true"
       apply_with_weight="true"
       only_selected="false" /><inkscape:path-effect
       effect="bspline"
       id="path-effect1371"
       is_visible="true"
       lpeversion="1"
       weight="33.333333"
       steps="2"
       helper_size="0"
       apply_no_weight="true"
       apply_with_weight="true"
       only_selected="false" /><inkscape:path-effect
       effect="bspline"
       id="path-effect1367"
       is_visible="true"
       lpeversion="1"
       weight="33.333333"
       steps="2"
       helper_size="0"
       apply_no_weight="true"
       apply_with_weight="true"
       only_selected="false" /><inkscape:path-effect
       effect="bspline"
       id="path-effect1363"
       is_visible="true"
       lpeversion="1"
       weight="33.333333"
       steps="2"
       helper_size="0"
       apply_no_weight="true"
       apply_with_weight="true"
       only_selected="false" /><inkscape:path-effect
       effect="bspline"
       id="path-effect1359"
       is_visible="true"
       lpeversion="1"
       weight="33.333333"
       steps="2"
       helper_size="0"
       apply_no_weight="true"
       apply_with_weight="true"
       only_selected="false" /><inkscape:path-effect
       effect="bspline"
       id="path-effect1355"
       is_visible="true"
       lpeversion="1"
       weight="33.333333"
       steps="2"
       helper_size="0"
       apply_no_weight="true"
       apply_with_weight="true"
       only_selected="false" /></defs><g
     inkscape:groupmode="layer"
     id="layer2"
     inkscape:label="referencia"
     sodipodi:insensitive="true"
     style="display:none;opacity:0.472147"><image
       width="210.64497"
       height="273.56601"
       preserveAspectRatio="none"
       xlink:href="IMG_20230530_193043689.jpg"
       id="image229"
       x="-20.114376"
       y="-3.3546822" /></g><g
     inkscape:label="boceto"
     inkscape:groupmode="layer"
     id="layer1"
     style="display:none;opacity:0.263229"
     sodipodi:insensitive="true"><ellipse
       style="fill:none;stroke:#000000;stroke-width:1.03897;stroke-linecap:round;stroke-linejoin:bevel;stroke-dasharray:none;stroke-opacity:1"
       id="path1234"
       cx="90.334106"
       cy="65.861656"
       rx="55.100376"
       ry="40.220547" /><rect
       style="fill:none;stroke:#000000;stroke-width:1.12184;stroke-linecap:round;stroke-linejoin:bevel;stroke-dasharray:none;stroke-opacity:1"
       id="rect1346"
       width="187.31454"
       height="154.08585"
       x="-3.1958368"
       y="106.0216"
       ry="0" /><path
       style="fill:none;stroke:#000000;stroke-width:1;stroke-linecap:round;stroke-linejoin:bevel;stroke-dasharray:none;stroke-opacity:1"
       d="M 88.258958,-2.3646534 89.270009,293.7153"
       id="path1350" /></g><g
     inkscape:groupmode="layer"
     id="layer3"
     inkscape:label="boceto 1"><path
       style="opacity:1;fill:none;stroke:#363638;stroke-width:1;stroke-linecap:round;stroke-linejoin:bevel;stroke-dasharray:none;stroke-opacity:1"
       d="m 82.338834,79.324605 c 0.284262,0.02213 0.567451,0.04418 1.636873,0.301243 1.069422,0.257065 2.92489,0.748901 4.836026,0.703472 1.911135,-0.04543 3.878358,-0.627605 5.844973,-1.2096"
       id="path1353"
       inkscape:path-effect="#path-effect1355"
       inkscape:original-d="m 82.338834,79.324605 c 0.28419,0.02305 0.56738,0.04509 0.849571,0.06614 1.856542,0.492855 3.71201,0.98469 5.566515,1.475536 1.968301,-0.581199 3.935524,-1.163374 5.901786,-1.746561" /><path
       style="opacity:1;fill:none;stroke:#363638;stroke-width:1;stroke-linecap:round;stroke-linejoin:bevel;stroke-dasharray:none;stroke-opacity:1"
       d="m 98.155526,81.832022 c 1.132058,-0.347068 2.263474,-0.693941 2.953004,-1.33681 0.68953,-0.642869 0.93796,-1.582576 1.18658,-2.52299"
       id="path1357"
       inkscape:path-effect="#path-effect1359"
       inkscape:original-d="m 98.155526,81.832022 c 1.132424,-0.345874 2.263844,-0.692748 3.394274,-1.040622 0.24944,-0.938745 0.49787,-1.878452 0.74531,-2.819178" /><path
       style="opacity:1;fill:none;stroke:#363638;stroke-width:1;stroke-linecap:round;stroke-linejoin:bevel;stroke-dasharray:none;stroke-opacity:1"
       d="M 78.449211,81.932475 C 77.337406,81.513153 76.224394,81.093376 75.653418,80.330023 75.082442,79.56667 75.054683,78.459216 75.026897,77.350716"
       id="path1361"
       inkscape:path-effect="#path-effect1363"
       inkscape:original-d="m 78.449211,81.932475 c -1.112011,-0.418777 -2.225023,-0.838554 -3.339034,-1.259331 -0.02676,-1.106498 -0.05452,-2.213952 -0.08328,-3.322428" /><path
       style="opacity:1;fill:none;stroke:#363638;stroke-width:1;stroke-linecap:round;stroke-linejoin:bevel;stroke-dasharray:none;stroke-opacity:1"
       d="m 84.305272,68.995282 c 0.07356,-0.201373 0.147333,-0.403305 0.288624,-1.200255 0.14129,-0.79695 0.350015,-2.189132 0.558868,-3.582174"
       id="path1365"
       inkscape:path-effect="#path-effect1367"
       inkscape:original-d="m 84.305272,68.995282 c 0.07477,-0.200932 0.148537,-0.402865 0.221306,-0.605797 0.209733,-1.391239 0.418457,-2.783421 0.626186,-4.176632" /><path
       style="opacity:1;fill:none;stroke:#363638;stroke-width:1;stroke-linecap:round;stroke-linejoin:bevel;stroke-dasharray:none;stroke-opacity:1"
       d="M 91.568405,69.005826 C 91.225721,67.388001 90.882792,65.769016 90.539617,64.14887"
       id="path1369"
       inkscape:path-effect="#path-effect1371"
       inkscape:original-d="M 91.568405,69.005826 C 91.226476,67.387841 90.883546,65.768856 90.539617,64.14887" /><path
       style="opacity:1;fill:none;stroke:#363638;stroke-width:1;stroke-linecap:round;stroke-linejoin:bevel;stroke-dasharray:none;stroke-opacity:1"
       d="m 102.70596,65.784008 c 2.81614,-0.72925 5.63158,-1.458318 7.68397,-1.744515 2.05239,-0.286198 3.34124,-0.129844 4.62902,0.02638"
       id="path1373"
       inkscape:path-effect="#path-effect1375"
       inkscape:original-d="m 102.70596,65.784008 c 2.81645,-0.728069 5.63189,-1.457139 8.44634,-2.187208 1.28991,0.157361 2.57876,0.313716 3.86665,0.469074" /><path
       style="opacity:1;fill:none;stroke:#363638;stroke-width:1;stroke-linecap:round;stroke-linejoin:bevel;stroke-dasharray:none;stroke-opacity:1"
       d="m 70.469487,67.742831 c -3.815049,-0.754015 -7.631252,-1.508259 -9.9764,-1.763363 -2.345148,-0.255103 -3.218722,-0.01066 -4.092981,0.23397"
       id="path1377"
       inkscape:path-effect="#path-effect1379"
       inkscape:original-d="m 70.469487,67.742831 c -3.815202,-0.753243 -7.631405,-1.507486 -11.448607,-2.26273 -0.872609,0.245451 -1.746183,0.489892 -2.620774,0.733337" /><path
       style="opacity:1;fill:none;stroke:#363638;stroke-width:1;stroke-linecap:round;stroke-linejoin:bevel;stroke-dasharray:none;stroke-opacity:1"
       d="M 70.896775,102.77729 C 63.151572,100.48976 55.405182,98.201869 49.48697,94.533123 43.568758,90.864377 39.479197,85.814232 38.800547,79.675211 38.121897,73.53619 40.855221,66.309231 42.217087,60.095197 43.578953,53.881164 43.5691,48.679949 43.559245,43.477628"
       id="path1401"
       inkscape:path-effect="#path-effect1403"
       inkscape:original-d="M 70.896775,102.77729 C 63.151382,100.4904 55.40499,98.202518 47.657597,95.913631 43.568873,90.864284 39.479312,85.814139 35.38867,80.762893 c 2.734433,-7.226247 5.467757,-14.453206 8.200135,-21.681309 -0.0089,-5.200422 -0.01871,-10.401637 -0.02956,-15.603956" /><path
       style="opacity:1;fill:none;stroke:#363638;stroke-width:1;stroke-linecap:round;stroke-linejoin:bevel;stroke-dasharray:none;stroke-opacity:1"
       d="m 102.65437,104.65009 c 7.95683,-2.32798 15.91488,-4.656325 21.93072,-8.354555 6.01585,-3.69823 10.08561,-8.762718 10.7552,-14.909955 0.66958,-6.147238 -2.06374,-13.374195 -3.4256,-19.588229 -1.36187,-6.214033 -1.352,-11.415248 -1.34213,-16.617569"
       id="path1405"
       inkscape:path-effect="#path-effect1409"
       inkscape:original-d="m 102.65437,104.65009 c 7.95717,-2.32679 15.91523,-4.655134 23.87418,-6.98503 4.07348,-5.066875 8.14325,-10.131362 12.21455,-15.200013 -2.73444,-7.226247 -5.46776,-14.453206 -8.20014,-21.681309 0.009,-5.200422 0.0187,-10.401637 0.0296,-15.603956"
       sodipodi:nodetypes="ccccc" /><path
       style="opacity:1;fill:none;stroke:#363638;stroke-width:1;stroke-linecap:round;stroke-linejoin:bevel;stroke-dasharray:none;stroke-opacity:1"
       d="m 69.776621,102.53342 c 4.571164,1.53231 9.141044,3.06419 14.562485,3.43449 5.42144,0.37031 11.694345,-0.42048 17.966514,-1.21118"
       id="path1411"
       inkscape:path-effect="#path-effect1413"
       inkscape:original-d="m 69.776621,102.53342 c 4.570963,1.53291 9.140843,3.06479 13.709906,4.59573 6.274159,-0.78982 12.547064,-1.58061 18.819093,-2.37242"
       sodipodi:nodetypes="ccc" /><path
       style="opacity:1;fill:none;stroke:#363638;stroke-width:1;stroke-linecap:round;stroke-linejoin:bevel;stroke-dasharray:none;stroke-opacity:1"
       d="m 72.091005,92.160698 7.849205,-6.506176 15.136674,-0.09845 9.752866,5.596702 z"
       id="path1464" /><path
       style="opacity:1;fill:none;stroke:#363638;stroke-width:0.5;stroke-linecap:round;stroke-linejoin:bevel;stroke-dasharray:none;stroke-opacity:1"
       d="m 85.487515,99.655172 c 2.413627,0.385538 4.826122,0.770898 6.986636,0.531298 2.160515,-0.239598 4.069648,-1.103736 5.978365,-1.967685"
       id="path1466"
       inkscape:path-effect="#path-effect1468"
       inkscape:original-d="m 85.487515,99.655172 c 2.413496,0.386358 4.825991,0.771718 7.237487,1.156078 1.910209,-0.863173 3.819343,-1.72731 5.727514,-2.592465" /><path
       style="opacity:1;fill:none;stroke:#363638;stroke-width:0.5;stroke-linecap:round;stroke-linejoin:bevel;stroke-dasharray:none;stroke-opacity:1"
       d="m 117.94798,70.719278 c 0.27439,-0.0088 0.54781,-0.01747 1.3437,-0.264385 0.7959,-0.246914 2.11463,-0.73183 2.9486,-1.451387 0.83397,-0.719557 1.18389,-1.674468 1.53403,-2.629961"
       id="path1470"
       inkscape:path-effect="#path-effect1472"
       inkscape:original-d="m 117.94798,70.719278 c 0.27442,-0.0077 0.54784,-0.01644 0.82026,-0.02616 1.31978,-0.483935 2.63851,-0.968851 3.95627,-1.454777 0.35094,-0.953951 0.70086,-1.908864 1.0498,-2.864796" /><path
       style="opacity:1;fill:none;stroke:#363638;stroke-width:0.5;stroke-linecap:round;stroke-linejoin:bevel;stroke-dasharray:none;stroke-opacity:1"
       d="m 56.310899,75.448288 c -0.15118,0.0136 -0.303264,0.02728 -1.141007,-0.284925 -0.837744,-0.312203 -2.36139,-0.950851 -3.405945,-2.038594 -1.044555,-1.087743 -1.609201,-2.625206 -2.174301,-4.163905"
       id="path1474"
       inkscape:path-effect="#path-effect1476"
       inkscape:original-d="m 56.310899,75.448288 c -0.151083,0.01468 -0.303167,0.02836 -0.45625,0.04104 -1.522708,-0.637673 -3.046354,-1.276322 -4.571031,-1.915983 -0.563669,-1.536524 -1.128315,-3.073987 -1.693972,-4.612481" /><path
       style="opacity:1;fill:none;stroke:#363638;stroke-width:0.5;stroke-linecap:round;stroke-linejoin:bevel;stroke-dasharray:none;stroke-opacity:1"
       d="m 73.988283,48.090739 c 2.681685,-0.494666 5.362582,-0.989186 7.888769,-1.050602 2.526188,-0.06142 4.897233,0.309938 7.342071,0.160367 2.444838,-0.149571 4.963766,-0.819686 7.070038,-0.864196 2.106272,-0.04451 3.799249,0.535982 5.491069,1.116075"
       id="path1478"
       inkscape:original-d="m 73.988283,48.090739 c 2.681896,-0.49352 5.362793,-0.988041 8.042689,-1.483561 2.372139,0.372368 4.743184,0.74372 7.113276,1.11408 2.520028,-0.669142 5.038956,-1.339258 7.556934,-2.010387 1.694049,0.581515 3.387028,1.162008 5.079048,1.741512"
       inkscape:path-effect="#path-effect1480" /><path
       style="opacity:1;fill:none;stroke:#363638;stroke-width:0.5;stroke-linecap:round;stroke-linejoin:bevel;stroke-dasharray:none;stroke-opacity:1"
       d="m 101.78023,43.86148 c -2.681685,-0.494666 -5.362582,-0.989186 -7.888769,-1.050602 -2.526188,-0.06142 -4.897233,0.309938 -7.342071,0.160367 -2.444838,-0.149571 -4.963766,-0.819686 -7.070038,-0.864196 -2.106272,-0.04451 -3.799251,0.535982 -5.491069,1.116075"
       id="path1482"
       inkscape:path-effect="#path-effect1486"
       inkscape:original-d="m 101.78023,43.86148 c -2.681896,-0.49352 -5.362793,-0.988041 -8.042689,-1.483561 -2.372139,0.372368 -4.743184,0.74372 -7.113276,1.11408 -2.520028,-0.669142 -5.038956,-1.339258 -7.556934,-2.010387 -1.694049,0.581515 -3.387028,1.162008 -5.079048,1.741512" /><ellipse
       style="opacity:1;fill:#000000;fill-opacity:1;stroke:#363638;stroke-width:0.5;stroke-linecap:round;stroke-linejoin:bevel;stroke-dasharray:none;stroke-opacity:1"
       id="path1494"
       cx="65.054466"
       cy="40.501003"
       rx="1.0096714"
       ry="0.78656971" /><path
       style="opacity:1;fill:none;fill-opacity:1;stroke:#363638;stroke-width:1;stroke-linecap:round;stroke-linejoin:bevel;stroke-dasharray:none;stroke-opacity:1"
       d="M 43.528998,46.663817 C 43.3629,44.2192 43.196733,41.773568 45.891769,38.021682 c 2.695035,-3.751886 8.25097,-8.808518 16.032771,-11.934578 7.781801,-3.12606 17.787915,-4.321137 27.173585,-4.099789 9.385671,0.221349 18.150075,1.858763 24.914845,4.595688 6.76477,2.736924 11.52961,6.572507 13.95968,10.166608 2.43007,3.594102 2.52634,6.946366 2.62258,10.29767"
       id="path2692"
       inkscape:path-effect="#path-effect2694"
       inkscape:original-d="m 43.528998,46.663817 c -0.16517,-2.44468 -0.331337,-4.890312 -0.498511,-7.337041 5.557268,-5.055936 11.113203,-10.112567 16.668471,-15.170503 10.007515,-1.194125 20.013629,-2.389202 30.018943,-3.585303 8.765748,1.638479 17.530149,3.275893 26.293719,4.91234 4.76603,3.836735 9.53087,7.672317 14.2948,11.506975 0.0973,3.353399 0.19354,6.705664 0.28881,10.056996"
       sodipodi:nodetypes="ccccccc" /><path
       style="opacity:1;fill:none;fill-opacity:1;stroke:#363638;stroke-width:1;stroke-linecap:round;stroke-linejoin:bevel;stroke-dasharray:none;stroke-opacity:1"
       d="m 131.31981,55.872551 c 1.24757,-1.154298 2.4951,-2.308559 3.86968,-2.822259 1.37459,-0.5137 2.87513,-0.386972 3.62637,2.014117 0.75125,2.401089 0.75425,7.075439 0.61025,10.09741 -0.14399,3.021971 -0.43481,4.391662 -1.30101,4.986055 -0.8662,0.594393 -2.309,0.414079 -3.75293,0.233625"
       id="path2696"
       inkscape:path-effect="#path-effect2698"
       inkscape:original-d="m 131.31981,55.872551 c 1.24853,-1.153261 2.49606,-2.307522 3.74259,-3.462783 1.5016,0.127733 3.00214,0.254461 4.50171,0.380192 0.004,4.675537 0.007,9.349887 0.009,14.02333 -0.28983,1.370747 -0.58065,2.740438 -0.87248,4.109157 -1.44184,-0.17932 -2.88464,-0.359632 -4.32846,-0.540948" /><path
       style="opacity:1;fill:none;fill-opacity:1;stroke:#363638;stroke-width:1;stroke-linecap:round;stroke-linejoin:bevel;stroke-dasharray:none;stroke-opacity:1"
       d="m 42.432086,55.903731 c -1.24757,-1.154298 -2.4951,-2.308559 -3.869684,-2.822259 -1.374583,-0.5137 -2.875123,-0.386972 -3.62637,2.014117 -0.751247,2.401089 -0.754247,7.075439 -0.61025,10.09741 0.143997,3.021971 0.434817,4.391662 1.301017,4.986055 0.8662,0.594393 2.308999,0.414079 3.752927,0.233625"
       id="path2700"
       inkscape:path-effect="#path-effect2704"
       inkscape:original-d="m 42.432086,55.903731 c -1.24853,-1.153261 -2.49606,-2.307522 -3.74259,-3.462783 -1.5016,0.127733 -3.00214,0.254461 -4.50171,0.380192 -0.004,4.675537 -0.007,9.349887 -0.009,14.02333 0.28983,1.370747 0.58065,2.740438 0.87248,4.109157 1.44184,-0.17932 2.88464,-0.359632 4.32846,-0.540948" /><path
       style="opacity:1;fill:none;fill-opacity:1;stroke:#363638;stroke-width:1;stroke-linecap:round;stroke-linejoin:bevel;stroke-dasharray:none;stroke-opacity:1"
       d="m 48.122186,93.909889 c -0.0392,1.343132 -0.07837,2.685293 -0.117511,4.026484"
       id="path2706"
       inkscape:path-effect="#path-effect2708"
       inkscape:original-d="m 48.122186,93.909889 c -0.03817,1.343162 -0.07734,2.685323 -0.117511,4.026484"
       sodipodi:nodetypes="cc" /><path
       style="opacity:1;fill:none;fill-opacity:1;stroke:#363638;stroke-width:1;stroke-linecap:round;stroke-linejoin:bevel;stroke-dasharray:none;stroke-opacity:1"
       d="m 124.84271,96.319533 c -0.0122,1.113018 -0.0245,2.225047 -0.0367,3.336087"
       id="path2710"
       inkscape:path-effect="#path-effect2712"
       inkscape:original-d="m 124.84271,96.319533 c -0.0112,1.113029 -0.0235,2.225058 -0.0367,3.336087" /><path
       style="opacity:1;fill:none;fill-opacity:1;stroke:#363638;stroke-width:1;stroke-linecap:round;stroke-linejoin:bevel;stroke-dasharray:none;stroke-opacity:1"
       d="m 87.922633,106.87985 c 9.728457,-0.87408 19.456007,-1.74807 26.214237,-3.21714 6.75822,-1.46907 10.54752,-3.53302 12.84057,-5.009081 2.29305,-1.476059 3.09015,-2.3644 3.07971,-3.126429 -0.0104,-0.762029 -0.82953,-1.398508 -1.64977,-2.035866"
       id="path2714"
       inkscape:path-effect="#path-effect2716"
       inkscape:original-d="m 87.922633,106.87985 c 9.728554,-0.873 19.456107,-1.74699 29.182657,-2.62199 3.79045,-2.06303 7.57975,-4.12698 11.36812,-6.191971 0.79813,-0.887375 1.59523,-1.775715 2.39134,-2.665072 -0.81814,-0.635507 -1.63724,-1.271989 -2.45737,-1.909483" /><path
       style="opacity:1;fill:none;fill-opacity:1;stroke:#363638;stroke-width:1;stroke-linecap:round;stroke-linejoin:bevel;stroke-dasharray:none;stroke-opacity:1"
       d="M 88.174428,107.06687 C 79.699632,106.59779 71.223785,106.12865 64.037049,104.50272 56.850313,102.8768 50.95289,100.09374 47.695535,97.974567 44.43818,95.855395 43.821965,94.399696 43.686052,93.28788 43.550138,92.176065 43.895255,91.408914 44.240579,90.641305"
       id="path2718"
       inkscape:path-effect="#path-effect2720"
       inkscape:original-d="m 88.174428,107.06687 c -8.474848,-0.46814 -16.950695,-0.93728 -25.427542,-1.40742 -5.896778,-2.78222 -11.794199,-5.56528 -17.692977,-8.349502 -0.61524,-1.45476 -1.231455,-2.910459 -1.848683,-4.367189 0.346118,-0.766152 0.691235,-1.533303 1.035353,-2.301454"
       sodipodi:nodetypes="ccccc" /><path
       style="opacity:1;fill:none;fill-opacity:1;stroke:#363638;stroke-width:1;stroke-linecap:round;stroke-linejoin:bevel;stroke-dasharray:none;stroke-opacity:1"
       d="m 43.47933,93.048136 c 0.0079,3.806945 0.01574,7.612884 -2.376289,9.831464 -2.392032,2.21858 -7.184626,2.85088 -14.841383,5.08716 -7.656757,2.23629 -18.1768706,6.07647 -28.6977533,9.91694"
       id="path2726"
       inkscape:path-effect="#path-effect2728"
       inkscape:original-d="m 43.47933,93.048136 c 0.0089,3.806943 0.01674,7.612884 0.02361,11.417824 -4.791784,0.63333 -9.584377,1.26564 -14.378065,1.89695 -10.519534,3.84134 -21.0396468,7.68153 -31.5609703,11.52079" /><path
       style="opacity:1;fill:none;fill-opacity:1;stroke:#363638;stroke-width:1;stroke-linecap:round;stroke-linejoin:bevel;stroke-dasharray:none;stroke-opacity:1"
       d="m 130.19375,95.43531 c -0.0538,3.183834 -0.10764,6.36668 8.63671,9.38802 8.74434,3.02134 26.28499,5.88185 43.82487,8.74223"
       id="path2730"
       inkscape:path-effect="#path-effect2732"
       inkscape:original-d="m 130.19375,95.43531 c -0.0528,3.183851 -0.10663,6.3667 -0.16144,9.54855 17.54236,2.86163 35.08301,5.72213 52.62302,8.5817" /><path
       style="opacity:1;fill:none;fill-opacity:1;stroke:#363638;stroke-width:1;stroke-linecap:round;stroke-linejoin:bevel;stroke-dasharray:none;stroke-opacity:1"
       d="m 88.509012,107.06334 -0.980437,2.00738 1.576459,19.85747 -0.19325,2.69165"
       id="path2734" /><path
       style="opacity:1;fill:none;fill-opacity:1;stroke:#363638;stroke-width:1;stroke-linecap:round;stroke-linejoin:bevel;stroke-dasharray:none;stroke-opacity:1"
       d="m 131.46032,101.94533 -9.68639,10.71387 -22.815652,5.78241"
       id="path2736" /><path
       style="opacity:1;fill:none;fill-opacity:1;stroke:#363638;stroke-width:1;stroke-linecap:round;stroke-linejoin:bevel;stroke-dasharray:none;stroke-opacity:1"
       d="m 41.074532,102.74799 11.227638,11.02084 21.086955,4.10867"
       id="path2738" /><path
       style="opacity:1;fill:none;fill-opacity:1;stroke:#363638;stroke-width:1;stroke-linecap:round;stroke-linejoin:bevel;stroke-dasharray:none;stroke-opacity:1"
       d="m 105.79375,145.68366 26.34227,-0.3026"
       id="path2740" /><path
       style="opacity:1;fill:none;fill-opacity:1;stroke:#363638;stroke-width:1;stroke-linecap:round;stroke-linejoin:bevel;stroke-dasharray:none;stroke-opacity:1"
       d="m 146.07085,156.12818 0.14731,25.5057"
       id="path2742" /><path
       style="opacity:1;fill:none;fill-opacity:1;stroke:#363638;stroke-width:1;stroke-linecap:round;stroke-linejoin:bevel;stroke-dasharray:none;stroke-opacity:1"
       d="m 24.379238,155.78794 -0.272446,25.45184"
       id="path2744" /><path
       style="opacity:1;fill:none;fill-opacity:1;stroke:#363638;stroke-width:1.1714;stroke-linecap:round;stroke-linejoin:bevel;stroke-dasharray:none;stroke-opacity:1"
       d="m 52.015864,59.847565 3.957731,0.488931 19.465934,0.15899 2.026643,-2.897628 -4.765404,-5.56751 -17.378705,2.242178 z"
       id="path2746" /><path
       style="opacity:1;fill:none;fill-opacity:1;stroke:#363638;stroke-width:1.1714;stroke-linecap:round;stroke-linejoin:bevel;stroke-dasharray:none;stroke-opacity:1"
       d="m 122.70243,59.039391 -3.95773,0.488931 -19.465928,0.15899 -2.026642,-2.897628 4.7654,-5.56751 17.3787,2.242178 z"
       id="path2748" /><path
       style="opacity:1;fill:none;fill-opacity:1;stroke:#363638;stroke-width:4.99846;stroke-linecap:round;stroke-linejoin:bevel;stroke-dasharray:none;stroke-opacity:1"
       d="m -5.5442463,116.61924 c 2.8964803,-1.40513 5.79244926,-2.81001 10.0516134,-4.32726 4.2591641,-1.51725 9.8807729,-3.14669 15.9524329,-4.91614 6.07166,-1.76945 12.592508,-3.67866 16.022332,-5.05824 3.429824,-1.37959 3.768919,-2.23004 4.249147,-4.086343 0.480227,-1.856308 1.101479,-4.718459 0.867073,-6.315355 -0.234406,-1.596896 -1.325789,-1.927943 -2.358131,-3.284028 -1.032343,-1.356085 -2.004785,-3.737837 -2.519242,-6.635021 -0.514457,-2.897184 -0.570377,-6.309228 -1.226639,-8.004679 -0.656263,-1.69545 -1.913776,-1.673127 -2.722432,-2.833377 -0.808656,-1.160249 -1.167542,-3.504043 -1.3082,-6.589003 -0.140658,-3.084959 -0.06288,-6.910449 1.092995,-9.757174 1.155871,-2.846724 3.389496,-4.713089 5.184335,-4.684396 1.79484,0.02869 3.149913,1.951239 4.266325,0.226126 1.116411,-1.725112 1.994939,-7.097303 3.064884,-11.055368 1.069945,-3.958064 2.331214,-6.500996 4.940218,-8.909355 2.609004,-2.40836 6.564851,-4.68121 12.36283,-6.584327 5.797979,-1.903118 13.43687,-3.436278 20.932131,-3.980409 7.495261,-0.544132 14.845638,-0.09938 21.752184,1.402839 6.90656,1.50222 13.36825,4.061305 17.571,6.626917 4.20276,2.565611 6.14641,5.13679 7.5165,7.377022 1.37009,2.240232 2.16683,4.149194 2.63024,6.297449 0.46341,2.148255 0.59389,4.535737 0.59102,6.297623 -0.003,1.761886 -0.13893,2.898207 -0.22738,3.326901 -0.0884,0.428695 -0.12955,0.149492 0.2578,-0.03053 0.38735,-0.180024 1.20232,-0.259633 2.41468,-0.279956 1.21235,-0.02032 2.8217,0.01853 3.88923,0.975219 1.06753,0.956686 1.59377,2.829929 1.93608,4.551639 0.34231,1.72171 0.50088,3.291838 0.58608,5.04217 0.0852,1.750331 0.0971,3.680823 -0.0448,5.387194 -0.14195,1.70637 -0.43761,3.188755 -1.34898,4.078233 -0.91136,0.889479 -2.43929,1.186904 -2.92186,2.245028 -0.48256,1.058125 0.0807,2.875508 0.22697,4.97427 0.14627,2.098762 -0.12399,4.479053 -0.70148,6.683001 -0.57749,2.203947 -1.46206,4.231803 -2.73368,5.707061 -1.27163,1.475257 -2.93077,2.398488 -3.02622,3.120591 -0.0954,0.722102 1.37196,1.242429 1.65618,1.785089 0.28422,0.542659 -0.6138,1.108219 -0.55386,1.98689 0.0599,0.878672 1.07716,2.069134 3.79718,3.345452 2.72001,1.27632 7.14219,2.63904 11.89445,3.75485 4.75225,1.11581 9.834,1.98472 15.56454,3.09174 5.73054,1.10703 12.10926,2.452 18.48693,3.79675"
       id="path2754"
       inkscape:path-effect="#path-effect2756"
       inkscape:original-d="m -5.5442463,116.61924 c 2.8970635,-1.40393 5.79303246,-2.80881 8.6881427,-4.21476 5.6229797,-1.62856 11.2445886,-3.258 16.8655736,-4.88855 6.522338,-1.90835 13.043186,-3.81756 19.56357,-5.72792 0.340122,-0.84952 0.679218,-1.69996 1.017338,-2.551473 0.622291,-2.861335 1.243542,-5.723487 1.863833,-8.586822 -1.090459,-0.330071 -2.181841,-0.661118 -3.274307,-0.993191 -0.971519,-2.380942 -1.94396,-4.762694 -2.917476,-7.145628 -0.05492,-3.411243 -0.110842,-6.823287 -0.167764,-10.23648 -1.256569,0.02332 -2.514082,0.04565 -3.77267,0.06697 -0.357914,-2.342969 -0.716801,-4.686762 -1.076714,-7.031727 0.07879,-3.824808 0.156573,-7.650297 0.233364,-11.477148 2.234833,-1.865538 4.468458,-3.731903 6.701264,-5.599418 1.356167,1.92368 2.71124,3.846227 4.065408,5.767908 0.879592,-5.371582 1.758119,-10.743773 2.635713,-16.117367 1.262364,-2.542124 2.523632,-5.085056 3.783994,-7.629177 3.957126,-2.27201 7.912973,-4.54486 11.868091,-6.818865 7.640392,-1.53226 15.279282,-3.06542 22.917668,-4.599678 7.351848,0.445778 14.702225,0.890527 22.052068,1.334305 6.46311,2.560249 12.9248,5.119335 19.38591,7.677586 1.94476,2.572332 3.88841,5.143511 5.83116,7.713828 0.79778,1.910057 1.59452,3.819019 2.3903,5.727081 0.13148,2.388603 0.26196,4.776086 0.39145,7.162681 -0.13507,1.13736 -0.27113,2.273681 -0.40819,3.40903 -0.0401,-0.278215 -0.0812,-0.557418 -0.1233,-0.83764 0.81606,-0.07862 1.63104,-0.158225 2.44511,-0.238843 1.61051,0.03986 3.21986,0.07872 4.82834,0.116574 0.52727,1.874351 1.05351,3.747594 1.57877,5.619925 0.15958,1.571186 0.31815,3.141314 0.47572,4.710502 0.0129,1.931559 0.0249,3.862051 0.0358,5.791599 -0.29467,1.483429 -0.59032,2.965814 -0.88699,4.447254 -1.527,0.298438 -3.05493,0.595863 -4.58393,0.892302 0.56428,1.818463 1.12754,3.635847 1.68982,5.452308 -0.26927,2.381382 -0.53953,4.761674 -0.8108,7.141049 -0.8836,2.028922 -1.76817,4.056778 -2.65377,6.083698 -1.65819,0.924257 -3.31734,1.847488 -4.97752,2.769741 1.46843,0.521337 2.93583,1.041664 4.40226,1.561 -0.89705,0.566576 -1.79508,1.132136 -2.69413,1.696717 1.01828,1.191523 2.03551,2.381985 3.05179,3.571515 4.42347,1.36381 8.84565,2.72653 13.26712,4.08835 5.08309,0.86997 10.16484,1.73889 15.24592,2.60686 6.37998,1.34602 12.7587,2.691 19.13653,4.03499"
       sodipodi:nodetypes="cccccccccccccccccccccccccccccccccccccccccc" /><path
       style="opacity:1;fill:#000000;fill-opacity:1;stroke:#363638;stroke-width:1.2;stroke-linecap:round;stroke-linejoin:bevel;stroke-dasharray:none;stroke-opacity:1"
       d="M 42.174362,54.959493 C 41.717537,54.544626 41.058116,53.986511 40.76225,53.764322 l -0.238204,-0.178886 0.324521,-1.38e-4 c 0.591857,-2.54e-4 1.315677,-0.171084 1.71578,-0.404945 0.08156,-0.04767 0.158137,-0.07684 0.170163,-0.06482 0.01203,0.01202 0.0029,0.21201 -0.02039,0.44441 -0.05476,0.547594 -0.177907,1.658617 -0.187247,1.689304 -0.004,0.01309 -0.162614,-0.117303 -0.352511,-0.289758 z"
       id="path2829" /><path
       style="opacity:1;fill:#000000;fill-opacity:1;stroke:#363638;stroke-width:0.741;stroke-linecap:round;stroke-linejoin:bevel;stroke-dasharray:none;stroke-opacity:1"
       d="m 38.314305,74.784829 c -0.01306,-0.04747 -0.05579,-0.233918 -0.09496,-0.41432 -0.265319,-1.221993 -0.754127,-2.282519 -1.372003,-2.976721 -0.322262,-0.362071 -0.371743,-0.32218 0.383527,-0.309188 0.432489,0.0074 0.846984,-0.0074 1.19494,-0.04269 0.293016,-0.02975 0.536403,-0.05041 0.54086,-0.04592 0.0045,0.0045 -0.03762,0.233449 -0.0935,0.5088 -0.187603,0.924421 -0.434484,2.462886 -0.523584,3.262773 -0.01134,0.101851 -0.01193,0.102139 -0.03528,0.01726 z"
       id="path2831" /><path
       style="opacity:1;fill:#000000;fill-opacity:1;stroke:#363638;stroke-width:0.513;stroke-linecap:round;stroke-linejoin:bevel;stroke-dasharray:none;stroke-opacity:1"
       d="m 131.39129,55.086418 c -3e-5,-0.01373 -0.0115,-0.145377 -0.0255,-0.292547 -0.014,-0.14717 -0.0448,-0.535596 -0.0685,-0.863168 -0.0237,-0.327572 -0.0476,-0.653374 -0.0532,-0.724005 l -0.0101,-0.12842 0.13481,0.128788 c 0.35568,0.339805 0.81944,0.570202 1.2964,0.644065 0.0692,0.01071 0.12564,0.02538 0.12543,0.03259 -2e-4,0.0072 -0.0918,0.08808 -0.20348,0.179706 -0.31106,0.255129 -0.83719,0.714868 -1.13965,0.995836 -0.0365,0.03389 -0.0561,0.04339 -0.0562,0.02715 z"
       id="path2833" /><path
       style="opacity:1;fill:#000000;fill-opacity:1;stroke:#363638;stroke-width:0.306;stroke-linecap:round;stroke-linejoin:bevel;stroke-dasharray:none;stroke-opacity:1"
       d="m 135.25559,73.234852 c -0.0529,-0.289248 -0.30097,-1.429052 -0.43502,-1.99903 -0.0377,-0.160202 -0.0668,-0.292498 -0.0648,-0.293989 0.002,-0.0015 0.11084,0.0094 0.24176,0.0242 0.46293,0.05235 0.95738,0.09056 1.17613,0.0909 l 0.12023,1.88e-4 -0.0601,0.07019 c -0.13441,0.157094 -0.29778,0.390473 -0.42087,0.601196 -0.24046,0.411677 -0.42313,0.920652 -0.51039,1.422119 -0.014,0.08057 -0.0269,0.151423 -0.0285,0.157459 -0.002,0.006 -0.01,-0.02692 -0.0185,-0.07324 z"
       id="path2835" /><rect
       style="opacity:1;fill:none;fill-opacity:1;stroke:#363638;stroke-width:5;stroke-linecap:round;stroke-linejoin:bevel;stroke-dasharray:none;stroke-opacity:1"
       id="rect2839"
       width="181.16228"
       height="182.08568"
       x="-1.0378071"
       y="-0.83520722" /><path
       style="opacity:1;fill:#000000;fill-opacity:1;stroke:none;stroke-width:1.95312;stroke-linecap:round;stroke-linejoin:bevel;stroke-dasharray:none;stroke-opacity:1"
       d="M 1.5625,56.244301 V 1.953125 H 89.453125 177.34375 V 54.6875 c 0,29.003907 -0.0579,52.73438 -0.12857,52.73438 -0.0707,0 -6.70646,-1.30839 -14.7461,-2.90753 -14.8793,-2.95959 -21.25148,-4.586256 -24.58693,-6.276455 -1.7835,-0.90377 -1.87029,-1.024953 -2.01524,-2.813828 -0.13575,-1.675262 0.003,-2.072192 1.33312,-3.822504 2.36431,-3.110473 3.50863,-7.233664 3.52335,-12.695313 l 0.0121,-4.492187 1.49908,-1.292977 c 1.98315,-1.710484 2.68731,-4.108676 2.68731,-9.152316 0,-10.147051 -1.9345,-14.636559 -6.71177,-15.57643 l -2.27261,-0.447109 -0.007,-2.195274 c -0.015,-4.874414 -1.53413,-9.203786 -4.89118,-13.939865 -3.76598,-5.312986 -11.66473,-9.662645 -22.64108,-12.467932 -6.94909,-1.776016 -11.347276,-2.304468 -19.140627,-2.299789 -15.97402,0.0096 -31.406586,3.935611 -39.453313,10.03686 -4.387105,3.326424 -6.016621,6.327666 -8.202894,15.108089 -0.801188,3.217704 -1.61927,5.749895 -1.817961,5.627094 -0.721816,-0.446105 -3.787681,-0.208461 -4.929742,0.382125 -1.788371,0.924801 -4.262121,3.977516 -5.047665,6.229039 -0.569073,1.631075 -0.704675,3.26002 -0.704675,8.465047 0,7.407649 0.499856,9.454946 2.72235,11.150125 1.221263,0.931504 1.308311,1.169981 1.744192,4.778434 0.753755,6.239977 2.082315,10.005871 4.385992,12.432391 l 1.15113,1.212515 -0.464288,2.666133 c -0.314097,1.803684 -0.749261,2.951109 -1.345239,3.54709 -0.934735,0.934734 -7.398486,3.101717 -23.197562,7.777017 -4.8143841,1.42469 -9.6044231,2.92577 -10.6445316,3.33574 L 1.5625,110.53548 Z"
       id="path2918" /><path
       style="opacity:1;fill:#000000;fill-opacity:1;stroke:none;stroke-width:1.95312;stroke-linecap:round;stroke-linejoin:bevel;stroke-dasharray:none;stroke-opacity:1"
       d="m 54.980469,59.481067 c -0.805664,-0.08428 -1.464844,-0.243151 -1.464844,-0.353057 0,-0.412764 2.045147,-3.670025 2.46865,-3.931764 0.242823,-0.150073 4.012886,-0.732483 8.377917,-1.294244 l 7.936421,-1.021383 2.090928,2.381599 2.090928,2.381599 -0.772815,1.060904 -0.772815,1.060904 -9.244763,-0.06567 c -5.08462,-0.03612 -9.903943,-0.134618 -10.709607,-0.218893 z"
       id="path2920" /><path
       style="opacity:1;fill:#000000;fill-opacity:1;stroke:none;stroke-width:1.95312;stroke-linecap:round;stroke-linejoin:bevel;stroke-dasharray:none;stroke-opacity:1"
       d="m 99.041398,57.980402 c -0.755059,-1.152367 -0.622561,-1.436746 2.017132,-4.329347 l 1.48053,-1.622382 8.15414,1.074305 c 5.65946,0.745633 8.25458,1.241983 8.48247,1.622382 0.18059,0.301443 0.7679,1.268327 1.30512,2.148631 l 0.97678,1.600553 -4.96707,0.253332 c -2.73188,0.139332 -7.62751,0.254044 -10.87917,0.254915 l -5.912103,0.0016 z"
       id="path2922" /><path
       style="opacity:1;fill:#000000;fill-opacity:1;stroke:none;stroke-width:1.95312;stroke-linecap:round;stroke-linejoin:bevel;stroke-dasharray:none;stroke-opacity:1"
       d="m 77.19483,88.8953 3.078608,-2.543674 7.327295,-0.01175 7.327296,-0.01175 3.610204,2.050782 3.610207,2.050781 -5.664065,0.242365 c -3.115234,0.133301 -9.422482,0.36039 -14.016107,0.504643 l -8.352045,0.262277 z"
       id="path2924" /></g></svg>
